<?xml version="1.0" encoding="UTF-8" standalone="no"?>
<!DOCTYPE svg PUBLIC "-//W3C//DTD SVG 1.1//EN" "http://www.w3.org/Graphics/SVG/1.1/DTD/svg11.dtd">
<svg width="100%" height="100%" viewBox="0 0 490 420" version="1.1" xmlns="http://www.w3.org/2000/svg" xmlns:xlink="http://www.w3.org/1999/xlink" xml:space="preserve" xmlns:serif="http://www.serif.com/" style="fill-rule:evenodd;clip-rule:evenodd;stroke-linejoin:round;stroke-miterlimit:1.41421;">
    <g transform="matrix(1,0,0,1,-370.586,-231)">
        <g transform="matrix(1,0,0,1,-675,-36)">
            <path d="M1258.66,524.814C1255.77,526.791 1252.05,527.109 1248.86,525.652C1227.5,515.887 1144.88,478.114 1103.25,459.087C1101.06,458.086 1098.47,458.786 1097.09,460.753C1095.7,462.719 1095.91,465.394 1097.59,467.119C1135.74,506.36 1221.43,594.495 1246.79,620.587C1248.68,622.53 1251.28,623.623 1253.99,623.617C1256.7,623.61 1259.29,622.503 1261.17,620.551C1295.73,584.637 1446.02,428.466 1508.06,363.996C1509.48,362.518 1509.56,360.205 1508.23,358.639C1506.91,357.073 1504.61,356.762 1502.92,357.919C1436.33,403.42 1286.93,505.501 1258.66,524.814Z" style="fill:rgb(208,82,36);"/>
        </g>
        <path id="clipboard-check" d="M627.855,650.333L412.731,650.333C389.611,650.333 370.586,631.308 370.586,608.188L370.586,315.291C370.586,292.171 389.611,273.146 412.731,273.145L460.868,273.145C469.719,248.701 492.899,231 520.293,231C547.687,231 570.867,248.701 579.718,273.145L627.855,273.145C650.975,273.146 670,292.171 670,315.291L670,405.599L577.043,469.115L436.466,404.851C436.062,404.672 435.98,404.632 435.545,404.456C427.19,401.076 417.124,402.662 410.221,408.383C400.319,416.59 398.578,432.398 406.091,442.527C406.685,443.327 407,443.75 408.17,444.981C458.021,496.255 507.535,547.859 557.723,598.803C557.992,599.07 558.262,599.334 558.539,599.591C570.329,610.55 589.791,609.483 600.534,598.466L670,526.281L670,608.188C670,631.308 650.975,650.333 627.855,650.333ZM422.59,431.121C471.753,482.825 521.734,533.747 571.792,584.586L422.59,431.121ZM670,497.438L670,498.376C642.101,527.144 614.139,555.852 586.17,584.55L670,497.438ZM670,429.48L670,429.822L583.663,488.814C580.814,490.76 577.167,491.099 574.014,489.719C577.143,491.058 580.856,490.699 583.663,488.814C612.495,469.114 641.245,449.293 670,429.48ZM573.864,489.652L574.014,489.719L573.856,489.648L573.864,489.652ZM428.257,423.089L512.357,461.535C484.383,448.588 456.43,435.593 428.257,423.089ZM421.174,427.717C421.141,428.672 421.436,429.676 422.18,430.643C421.531,429.783 421.192,428.755 421.174,427.717ZM520.293,273.145C508.733,273.145 499.22,282.658 499.22,294.218C499.22,305.778 508.733,315.291 520.293,315.291L520.428,315.29C531.927,315.217 541.366,305.733 541.366,294.218C541.366,282.703 531.927,273.22 520.428,273.146L520.293,273.145Z" style="fill:rgb(208,82,36);fill-rule:nonzero;"/>
    </g>
</svg>
