<?xml version="1.0" encoding="UTF-8" standalone="no"?>
<!DOCTYPE svg PUBLIC "-//W3C//DTD SVG 1.1//EN" "http://www.w3.org/Graphics/SVG/1.1/DTD/svg11.dtd">
<svg width="100%" height="100%" viewBox="0 0 917 762" version="1.1" xmlns="http://www.w3.org/2000/svg" xmlns:xlink="http://www.w3.org/1999/xlink" xml:space="preserve" xmlns:serif="http://www.serif.com/" style="fill-rule:evenodd;clip-rule:evenodd;stroke-miterlimit:10;">
    <g transform="matrix(1,0,0,1,-142.32,-68.58)">
        <path d="M375.41,276.58C375.41,271.061 370.929,266.58 365.41,266.58L236.09,266.58C230.571,266.58 226.09,271.061 226.09,276.58L226.09,528.52C226.09,534.039 230.571,538.52 236.09,538.52L365.41,538.52C370.929,538.52 375.41,534.039 375.41,528.52L375.41,276.58Z" style="fill:url(#_Linear1);"/>
    </g>
    <g transform="matrix(1,0,0,1,-142.32,-68.58)">
        <path d="M371.97,281.05C371.97,275.531 367.489,271.05 361.97,271.05L239.53,271.05C234.011,271.05 229.53,275.531 229.53,281.05L229.53,522.2C229.53,527.719 234.011,532.2 239.53,532.2L361.97,532.2C367.489,532.2 371.97,527.719 371.97,522.2L371.97,281.05Z" style="fill:white;"/>
    </g>
    <g transform="matrix(0.999999,-0.00139626,0.00139626,0.999999,-142.31,-68.58)">
        <rect x="245.6" y="289.52" width="110.28" height="212.52" style="fill:rgb(230,230,230);"/>
    </g>
    <g transform="matrix(0.999999,-0.00139626,0.00139626,0.999999,-142.48,-68.58)">
        <ellipse cx="300.9" cy="517.35" rx="8.79" ry="9.01" style="fill:rgb(219,219,219);"/>
    </g>
    <g transform="matrix(0.999999,-0.00139626,0.00139626,0.999999,-142.15,-68.61)">
        <ellipse cx="283.88" cy="279.63" rx="1.76" ry="1.8" style="fill:rgb(219,219,219);"/>
    </g>
    <g transform="matrix(0.999999,-0.00139626,0.00139626,0.999999,-142.15,-68.58)">
        <path d="M319.05,279.25C319.05,278.698 318.602,278.25 318.05,278.25L292.79,278.25C292.238,278.25 291.79,278.698 291.79,279.25L291.79,279.95C291.79,280.502 292.238,280.95 292.79,280.95L318.05,280.95C318.602,280.95 319.05,280.502 319.05,279.95L319.05,279.25Z" style="fill:rgb(219,219,219);"/>
    </g>
    <g transform="matrix(1,0,0,1,-141.76,-69)">
        <path d="M847.23,526.13C847.23,526.13 861.23,622.32 943.42,654.27L777.12,654.5L610.82,654.73C692.88,622.55 706.67,526.32 706.67,526.32L847.23,526.13Z" style="fill:rgb(224,224,224);fill-rule:nonzero;"/>
    </g>
    <g transform="matrix(0.999999,-0.00139626,0.00139626,0.999999,-142.68,-67.93)">
        <rect x="609.17" y="654.5" width="335.74" height="20.32" style="fill:url(#_Linear2);"/>
    </g>
    <g transform="matrix(0.999999,-0.00139626,0.00139626,0.999999,-142.67,-67.93)">
        <rect x="610.84" y="654.5" width="332.6" height="15.68" style="fill:rgb(245,245,245);"/>
    </g>
    <g transform="matrix(1,0,0,1,-141.76,-69)">
        <path d="M1047,180L506.1,180.75C500.014,180.896 495.126,186.024 495.27,192.11L495.69,507.69L495.69,518.2C495.69,542.2 514.32,561.59 537.24,561.56L1016.85,560.9C1039.76,560.9 1058.31,541.41 1058.28,517.43L1058.28,506.93L1057.86,191.35C1057.86,191.266 1057.86,191.182 1057.86,191.097C1057.86,185.098 1053,180.128 1047,180Z" style="fill:url(#_Linear3);fill-rule:nonzero;"/>
    </g>
    <g transform="matrix(1,0,0,1,-142.24,-67.93)">
        <path d="M513,189.5L1040.49,189.5C1046.39,189.5 1051.24,194.353 1051.24,200.25L1051.24,500.57L502.24,500.57L502.24,200.25C502.24,200.25 502.24,200.25 502.24,200.25C502.24,194.353 507.093,189.5 512.99,189.5C512.993,189.5 512.997,189.5 513,189.5Z" style="fill:white;fill-rule:nonzero;"/>
    </g>
    <g transform="matrix(1,0,0,1,-141.76,-69)">
        <path d="M1013.17,551.56L540.81,552.21C540.793,552.21 540.777,552.21 540.76,552.21C519.757,552.21 502.467,534.943 502.44,513.94L502.44,500.94L1051.44,500.18L1051.44,513.18C1051.44,513.2 1051.44,513.22 1051.44,513.24C1051.44,534.243 1034.17,551.533 1013.17,551.56Z" style="fill:rgb(245,245,245);fill-rule:nonzero;"/>
    </g>
    <g transform="matrix(1,0,0,1,-142.23,-67.93)">
        <rect x="529.35" y="214.7" width="496.81" height="251.12" style="fill:rgb(230,230,230);"/>
    </g>
    <g transform="matrix(1.92725,0,0,1.92725,2.3276,-554.456)">
        <g>
            <g transform="matrix(0.510209,0,0,1,104.978,-21.73)">
                <rect x="215.64" y="413.83" width="163.33" height="7.1" style="fill:white;"/>
            </g>
            <g transform="matrix(0.858063,0,0,1,29.9672,-48.03)">
                <rect x="215.64" y="428.03" width="163.33" height="7.1" style="fill:white;"/>
            </g>
            <g transform="matrix(0.306129,0,0,1,148.986,32.595)">
                <rect x="215.64" y="428.03" width="163.33" height="7.1" style="fill:white;"/>
            </g>
            <g transform="matrix(0.306129,0,0,1,223.986,32.595)">
                <rect x="215.64" y="428.03" width="163.33" height="7.1" style="fill:white;"/>
            </g>
            <g transform="matrix(0.306129,0,0,1,148.986,46.97)">
                <rect x="215.64" y="428.03" width="163.33" height="7.1" style="fill:white;"/>
            </g>
            <g transform="matrix(0.306129,0,0,1,223.986,46.97)">
                <rect x="215.64" y="428.03" width="163.33" height="7.1" style="fill:white;"/>
            </g>
        </g>
        <g transform="matrix(1,0,0,0.852051,-7.955,-25.468)">
            <rect x="222.74" y="506.15" width="142.03" height="56.81" style="fill:white;"/>
        </g>
    </g>
    <path d="M138.78,610.63L33.09,610.63L33.09,34.16L657.6,34.16L657.6,82.2" style="fill:none;stroke:rgb(58,210,159);stroke-width:6px;stroke-dasharray:12,12;"/>
    <circle cx="36.3" cy="36.3" r="36.3" style="fill:url(#_Linear4);"/>
    <circle cx="36.3" cy="36.3" r="34.16" style="fill:rgb(105,240,174);"/>
    <path d="M23.49,34.16L36.3,45.9L54.44,19.21L60.85,24.55L36.3,56.58L18.15,36.3L23.49,34.16Z" style="fill:white;fill-rule:nonzero;"/>
    <g transform="matrix(0.999999,-0.00139626,0.00139626,0.999999,-142.61,-68.38)">
        <path d="M583.51,418.37C583.51,408.894 575.816,401.2 566.34,401.2L323.52,401.2C314.044,401.2 306.35,408.894 306.35,418.37L306.35,813.67C306.35,823.146 314.044,830.84 323.52,830.84L566.34,830.84C575.816,830.84 583.51,823.146 583.51,813.67L583.51,418.37Z" style="fill:url(#_Linear5);"/>
    </g>
    <g transform="matrix(0.999999,-0.00139626,0.00139626,0.999999,-142.61,-68.38)">
        <rect x="325.75" y="434.02" width="239.35" height="360.35" style="fill:url(#_Linear6);"/>
    </g>
    <g transform="matrix(0.999999,-0.00139626,0.00139626,0.999999,-142.61,-68.39)">
        <path d="M575.08,420.38C575.08,413.382 569.398,407.7 562.4,407.7L327.46,407.7C320.462,407.7 314.78,413.382 314.78,420.38L314.78,804.87C314.78,811.868 320.462,817.55 327.46,817.55L562.4,817.55C569.398,817.55 575.08,811.868 575.08,804.87L575.08,420.38Z" style="fill:white;"/>
    </g>
    <g transform="matrix(0.999999,-0.00139626,0.00139626,0.999999,-142.6,-68.38)">
        <rect x="332.99" y="439.01" width="224.79" height="343.76" style="fill:rgb(230,230,230);"/>
    </g>
    <g transform="matrix(1,0,0,1,-142.86,-68.38)">
        <ellipse cx="446.25" cy="799.84" rx="9.26" ry="9.49" style="fill:rgb(219,219,219);"/>
    </g>
    <g transform="matrix(0.999999,-0.00139626,0.00139626,0.999999,-142.35,-68.44)">
        <ellipse cx="406.24" cy="424.2" rx="3.09" ry="3.16" style="fill:rgb(219,219,219);"/>
    </g>
    <g transform="matrix(0.999999,-0.00139626,0.00139626,0.999999,-142.35,-68.39)">
        <path d="M461.82,423.01C461.82,422.591 461.479,422.25 461.06,422.25L422.44,422.25C422.021,422.25 421.68,422.591 421.68,423.01L421.68,424.65C421.68,425.069 422.021,425.41 422.44,425.41L461.06,425.41C461.479,425.41 461.82,425.069 461.82,424.65L461.82,423.01Z" style="fill:rgb(219,219,219);"/>
    </g>
    <g transform="matrix(1,0,0,1,14.2,10)">
        <g>
            <g transform="matrix(0.510209,0,0,1,104.978,-21.73)">
                <rect x="215.64" y="413.83" width="163.33" height="7.1" style="fill:white;"/>
            </g>
            <g transform="matrix(0.858063,0,0,1,29.9672,-48.03)">
                <rect x="215.64" y="428.03" width="163.33" height="7.1" style="fill:white;"/>
            </g>
            <g transform="matrix(0.306129,0,0,1,148.986,32.595)">
                <rect x="215.64" y="428.03" width="163.33" height="7.1" style="fill:white;"/>
            </g>
            <g transform="matrix(0.306129,0,0,1,223.986,32.595)">
                <rect x="215.64" y="428.03" width="163.33" height="7.1" style="fill:white;"/>
            </g>
            <g transform="matrix(0.306129,0,0,1,148.986,46.97)">
                <rect x="215.64" y="428.03" width="163.33" height="7.1" style="fill:white;"/>
            </g>
            <g transform="matrix(0.306129,0,0,1,223.986,46.97)">
                <rect x="215.64" y="428.03" width="163.33" height="7.1" style="fill:white;"/>
            </g>
        </g>
        <g transform="matrix(1,0,0,0.852051,-7.955,-25.468)">
            <rect x="222.74" y="506.15" width="142.03" height="56.81" style="fill:white;"/>
        </g>
    </g>
    <g transform="matrix(0.686299,0,0,0.686299,-37.4068,-30.8649)">
        <g>
            <g transform="matrix(0.510209,0,0,1,104.978,-21.73)">
                <rect x="215.64" y="413.83" width="163.33" height="7.1" style="fill:white;"/>
            </g>
            <g transform="matrix(0.858063,0,0,1,29.9672,-48.03)">
                <rect x="215.64" y="428.03" width="163.33" height="7.1" style="fill:white;"/>
            </g>
            <g transform="matrix(0.306129,0,0,1,148.986,32.595)">
                <rect x="215.64" y="428.03" width="163.33" height="7.1" style="fill:white;"/>
            </g>
            <g transform="matrix(0.306129,0,0,1,223.986,32.595)">
                <rect x="215.64" y="428.03" width="163.33" height="7.1" style="fill:white;"/>
            </g>
            <g transform="matrix(0.306129,0,0,1,148.986,46.97)">
                <rect x="215.64" y="428.03" width="163.33" height="7.1" style="fill:white;"/>
            </g>
            <g transform="matrix(0.306129,0,0,1,223.986,46.97)">
                <rect x="215.64" y="428.03" width="163.33" height="7.1" style="fill:white;"/>
            </g>
        </g>
        <g transform="matrix(1,0,0,0.852051,-7.955,-25.468)">
            <rect x="222.74" y="506.15" width="142.03" height="56.81" style="fill:white;"/>
        </g>
    </g>
    <defs>
        <linearGradient id="_Linear1" x1="0" y1="0" x2="1" y2="0" gradientUnits="userSpaceOnUse" gradientTransform="matrix(1.67047e-14,-272.809,272.809,1.67047e-14,300.76,540.263)"><stop offset="0" style="stop-color:rgb(128,128,128);stop-opacity:0.247059"/><stop offset="0.54" style="stop-color:rgb(128,128,128);stop-opacity:0.117647"/><stop offset="1" style="stop-color:rgb(128,128,128);stop-opacity:0.0980392"/></linearGradient>
        <linearGradient id="_Linear2" x1="0" y1="0" x2="1" y2="0" gradientUnits="userSpaceOnUse" gradientTransform="matrix(1.24485e-15,-20.33,20.33,1.24485e-15,777.06,674.81)"><stop offset="0" style="stop-color:rgb(128,128,128);stop-opacity:0.247059"/><stop offset="0.54" style="stop-color:rgb(128,128,128);stop-opacity:0.117647"/><stop offset="1" style="stop-color:rgb(128,128,128);stop-opacity:0.0980392"/></linearGradient>
        <linearGradient id="_Linear3" x1="0" y1="0" x2="1" y2="0" gradientUnits="userSpaceOnUse" gradientTransform="matrix(2.34113e-14,-382.335,382.335,2.34113e-14,776.23,564.548)"><stop offset="0" style="stop-color:rgb(128,128,128);stop-opacity:0.247059"/><stop offset="0.54" style="stop-color:rgb(128,128,128);stop-opacity:0.117647"/><stop offset="1" style="stop-color:rgb(128,128,128);stop-opacity:0.0980392"/></linearGradient>
        <linearGradient id="_Linear4" x1="0" y1="0" x2="1" y2="0" gradientUnits="userSpaceOnUse" gradientTransform="matrix(4.44486e-15,-72.59,72.59,4.44486e-15,36.3,72.59)"><stop offset="0" style="stop-color:rgb(128,128,128);stop-opacity:0.123529"/><stop offset="0.54" style="stop-color:rgb(128,128,128);stop-opacity:0.0588235"/><stop offset="1" style="stop-color:rgb(128,128,128);stop-opacity:0.0490196"/></linearGradient>
        <linearGradient id="_Linear5" x1="0" y1="0" x2="1" y2="0" gradientUnits="userSpaceOnUse" gradientTransform="matrix(2.6428e-14,-431.603,431.603,2.6428e-14,444.95,834.657)"><stop offset="0" style="stop-color:rgb(128,128,128);stop-opacity:0.247059"/><stop offset="0.54" style="stop-color:rgb(128,128,128);stop-opacity:0.117647"/><stop offset="1" style="stop-color:rgb(128,128,128);stop-opacity:0.0980392"/></linearGradient>
        <linearGradient id="_Linear6" x1="0" y1="0" x2="1" y2="0" gradientUnits="userSpaceOnUse" gradientTransform="matrix(2.21666e-14,-362.008,362.008,2.21666e-14,445.44,798.029)"><stop offset="0" style="stop-color:black;stop-opacity:0.0862745"/><stop offset="0.55" style="stop-color:black;stop-opacity:0.0666667"/><stop offset="1" style="stop-color:black;stop-opacity:0.0196078"/></linearGradient>
    </defs>
</svg>
